<svg width="782" height="278" viewBox="0 0 782 278" fill="none" xmlns="http://www.w3.org/2000/svg">
<path d="M609.775 85.8813H583.715C563.598 85.8813 555.674 97.1053 555.674 112.273V139.575C555.674 154.742 563.598 165.966 583.715 165.966H632.94C632.94 157.338 625.912 150.344 617.243 150.344H583.715C574.876 150.344 571.371 145.642 571.371 139.271V133.508V120.918V112.425C571.371 106.206 574.876 101.352 583.715 101.352H609.623C617.548 101.352 621.053 105.296 621.053 111.363C621.053 117.278 617.853 120.918 609.166 120.918H589.135C582.149 120.918 576.486 126.555 576.486 133.508H609.623C629.435 133.508 636.903 125.165 636.903 110.453C636.903 94.9819 628.825 85.8813 609.775 85.8813Z" fill="white"/>
<path d="M403.613 85.8813H381.303C359.757 85.8813 346.309 98.3221 346.309 124.114C346.309 150.058 359.757 162.65 381.303 162.65H393.015C401.117 162.65 407.685 156.129 407.685 148.085H382.831C368.925 148.085 362.66 141.106 362.66 124.721C362.66 108.335 368.925 101.356 382.831 101.356H398.876C411.865 101.356 416.908 106.97 416.908 120.018V148.085V162.65V166.291C416.908 177.822 412.935 182.525 400.863 182.525H370.301C361.692 182.525 354.714 189.453 354.714 198H402.696C425.312 198 433.258 189.049 433.258 166.291V120.169C433.258 97.1084 422.867 85.8813 403.613 85.8813Z" fill="white"/>
<path d="M253.427 85.8813H286.502C313.66 85.8813 326.86 98.7738 326.86 120.918V165.966C317.894 165.966 310.626 158.7 310.626 149.737V120.918C310.626 108.329 303.343 101.352 286.502 101.352H260.254C258.889 101.352 258.282 102.111 258.282 103.627V165.966C249.4 165.966 242.199 158.768 242.199 149.888V98.3188C242.199 88.9149 245.385 85.8813 253.427 85.8813Z" fill="white"/>
<path d="M191.276 85.8813H158.51C149.925 85.8813 142.966 92.8079 142.966 101.352H191.124C199.963 101.352 203.468 106.206 203.468 112.425V118.492V131.232V146.248C203.468 149.13 202.249 150.344 199.049 150.344H165.216C157.139 150.344 153.938 146.552 153.938 140.636C153.938 134.721 156.986 131.232 165.521 131.232H177.748C184.818 131.232 190.55 125.528 190.55 118.492H165.216C145.404 118.492 138.089 126.985 138.089 141.546C138.089 156.714 146.014 165.966 165.064 165.966H202.706C216.27 165.966 219.318 161.416 219.318 149.888V112.273C219.318 97.1053 211.393 85.8813 191.276 85.8813Z" fill="white"/>
<path d="M504.751 85.8813H471.985C463.4 85.8813 456.44 92.8079 456.44 101.352H504.599C513.438 101.352 516.943 106.206 516.943 112.425V118.492V131.232V146.248C516.943 149.13 515.724 150.344 512.523 150.344H478.691C470.614 150.344 467.413 146.552 467.413 140.636C467.413 134.721 470.461 131.232 478.995 131.232H491.223C498.293 131.232 504.025 125.528 504.025 118.492H478.691C458.879 118.492 451.564 126.985 451.564 141.546C451.564 156.714 459.488 165.966 478.538 165.966H516.181C529.744 165.966 532.792 161.416 532.792 149.888V112.273C532.792 97.1053 524.868 85.8813 504.751 85.8813Z" fill="white"/>
<path d="M711.827 85.8813H679.061C670.476 85.8813 663.517 92.8079 663.517 101.352H711.675C720.514 101.352 724.019 106.206 724.019 112.425V118.492V131.232V146.248C724.019 149.13 722.8 150.344 719.6 150.344H685.767C677.69 150.344 674.489 146.552 674.489 140.636C674.489 134.721 677.537 131.232 686.072 131.232H698.299C705.369 131.232 711.101 125.528 711.101 118.492H685.767C665.955 118.492 658.64 126.985 658.64 141.546C658.64 156.714 666.565 165.966 685.615 165.966H723.257C736.821 165.966 739.869 161.416 739.869 149.888V112.273C739.869 97.1053 731.944 85.8813 711.827 85.8813Z" fill="white"/>
<path d="M43.1313 63H95.8641C119.03 63 128.936 77.339 128.936 93.8136C128.936 109.373 119.944 126.153 95.8641 126.153H63.8587C62.1822 126.153 61.2678 126.915 61.2678 128.746V165.966C51.3355 165.966 43.2838 157.907 43.2838 147.966V125.237C43.2838 113.644 48.1608 108.915 59.4389 108.915H96.4738C106.685 108.915 110.8 101.898 110.8 94.7288C110.8 87.2542 106.38 81 96.6262 81H61.1154C51.1831 81 43.1313 72.9411 43.1313 63Z" fill="white"/>
</svg>
